<svg width="203" height="89" viewBox="0 0 203 89" fill="none" xmlns="http://www.w3.org/2000/svg">
<path d="M71.2918 33.8909L68.9407 23.8993H42.9058V32.6575C46.8318 34.8409 49.4979 39.0283 49.4979 43.8305C49.4979 48.4799 46.9932 52.545 43.2708 54.781C44.4688 61.8487 48.6047 64.493 55.3438 64.5831H70.6918V54.5841H58.4912C55.7516 54.3706 54.2735 52.8341 54.2735 48.9346H67.3703V39.1289H54.262V33.8909H71.2918Z" fill="white"/>
<path d="M92.6913 33.1206C86.6277 33.1206 80.2506 34.5982 76.1599 35.9753V64.5831H87.0427V43.167C88.2897 42.9242 89.3547 42.7507 90.3011 42.7507C93.9943 42.7507 94.5995 44.1857 94.5995 48.4685V64.5831H105.479V47.7455C105.479 36.8545 101.014 33.1206 92.6913 33.1206Z" fill="white"/>
<path d="M187.063 57.0814C183.667 57.0814 182.777 56.2533 182.777 49.3002C182.777 42.0908 183.667 41.4434 187.063 41.4434C190.504 41.4434 191.396 42.0908 191.396 49.3002C191.396 56.2533 190.504 57.0814 187.063 57.0814ZM187.063 33.1205C177.185 33.1205 171.9 36.6178 171.9 49.1101C171.9 61.6612 177.06 65.4121 187.063 65.4121C197.165 65.4121 202.355 61.6612 202.355 49.1101C202.355 36.6178 197.111 33.1205 187.063 33.1205Z" fill="white"/>
<path d="M160.126 42.2746C162.564 42.2746 165.251 42.9981 166.86 43.4538L168.992 34.423C166.558 33.5836 162.455 33.1205 159.067 33.1205C150.071 33.1205 143.651 36.6746 143.651 49.1101C143.651 61.6612 150.016 65.4121 159.067 65.4121C162.283 65.4121 166.5 64.8825 168.992 63.9252L166.86 54.8877C165.251 55.4773 162.752 56.1882 160.126 56.1882C156.508 56.1882 154.543 55.5424 154.543 49.3002C154.543 42.6934 156.508 42.2746 160.126 42.2746Z" fill="white"/>
<path d="M120.913 46.8513C121.106 43.4117 122.67 40.7955 125.637 40.7955C128.561 40.7955 130.657 42.2279 130.712 46.4065L120.913 46.8513ZM125.063 33.1274C116.381 33.1274 110.419 36.6851 110.419 49.1222C110.419 61.6742 117.326 65.4227 125.717 65.4227C129.467 65.4227 134.039 64.7837 137.075 63.7586L135.181 55.743C132.969 56.1727 129.237 56.5023 127.141 56.5023C123.579 56.5023 121.662 55.9591 121.55 52.7586H139.221C140.356 36.1513 135.719 33.1274 125.063 33.1274Z" fill="white"/>
<path d="M42.9059 70.7133C37.9559 70.7133 33.9434 74.7248 33.9434 79.678C33.9434 84.6258 37.9559 88.6378 42.9059 88.6378C47.8538 88.6378 51.8674 84.6258 51.8674 79.678C51.8674 74.7248 47.8538 70.7133 42.9059 70.7133Z" fill="white"/>
<path d="M30.0677 11.3503C33.0385 11.3503 35.4448 8.94141 35.4448 5.97367C35.4448 3.00287 33.0385 0.595012 30.0677 0.595012C27.0984 0.595012 24.6907 3.00287 24.6907 5.97367C24.6907 8.94141 27.0984 11.3503 30.0677 11.3503Z" fill="white"/>
<path d="M16.1413 31.0637C20.1023 31.0637 23.3105 27.8564 23.3105 23.8992C23.3105 19.9372 20.1023 16.7288 16.1413 16.7288C12.1824 16.7288 8.97412 19.9372 8.97412 23.8992C8.97412 27.8564 12.1824 31.0637 16.1413 31.0637Z" fill="white"/>
<path d="M26.7344 39.8538C31.2364 43.1012 34.1948 48.3564 34.2869 54.2976C35.0702 54.4788 35.8822 54.584 36.7197 54.584C39.0682 54.584 41.2338 53.8227 43.0026 52.5465C44.0302 51.8044 44.9276 50.894 45.638 49.8434C46.024 49.2716 46.3573 48.6596 46.6297 48.0164C47.0374 47.0517 47.3093 46.0148 47.4193 44.9298C47.4557 44.5684 47.4745 44.2012 47.4745 43.8304C47.4745 40.194 45.6661 36.9877 42.9057 35.0418C41.1546 33.8074 39.025 33.0768 36.7197 33.0768C32.186 33.0768 28.3161 35.884 26.7344 39.8538Z" fill="white"/>
<path d="M32.2381 53.5961C32.1089 51.4555 31.5652 49.4269 30.6804 47.5909C30.2272 46.6507 29.6861 45.7607 29.0662 44.9326C28.7574 44.5185 28.4277 44.1195 28.0808 43.7378C27.908 43.5466 27.7293 43.3602 27.547 43.1774C27.1818 42.8127 26.7996 42.4649 26.4012 42.1362C26.3173 42.0665 26.2293 42.0013 26.1433 41.9337C26.0266 41.8409 25.9116 41.7461 25.7922 41.657C25.3777 41.3471 24.9485 41.0575 24.5053 40.7878C24.4537 40.7561 24.3996 40.7279 24.3474 40.6977C23.9532 40.4633 23.5496 40.243 23.1345 40.043C22.6641 39.8165 22.1818 39.6122 21.6876 39.4315C19.958 38.7977 18.0902 38.4518 16.1413 38.4518C13.0798 38.4518 10.2162 39.3055 7.77715 40.7878C7.33395 41.0575 6.90422 41.3471 6.49022 41.657C5.04129 42.7409 3.78035 44.0633 2.76571 45.5654C2.47612 45.9946 2.20582 46.4378 1.9579 46.8955C1.33654 48.0373 0.849565 49.2638 0.518312 50.5529C0.253205 51.5831 0.0875908 52.6545 0.0313375 53.7534C0.0177908 54.0283 0.010498 54.3055 0.010498 54.5841C0.010498 57.3679 0.715711 59.9878 1.9579 62.2731C2.20582 62.7299 2.47612 63.1742 2.76571 63.6023C3.0553 64.0321 3.36515 64.4461 3.69382 64.8446C4.02302 65.243 4.37035 65.6247 4.73502 65.9903C5.28235 66.5373 5.86942 67.045 6.49022 67.5102C6.90422 67.8201 7.33395 68.1091 7.77715 68.3783C8.66409 68.9174 9.60742 69.3731 10.596 69.7351C12.3252 70.3679 14.1928 70.7133 16.1413 70.7133C18.0902 70.7133 19.958 70.3679 21.6876 69.7351C22.6752 69.3731 23.6189 68.9174 24.5053 68.3783C24.9485 68.1091 25.3777 67.8201 25.7922 67.5102C25.9985 67.355 26.2022 67.195 26.4012 67.031C26.7996 66.7029 27.1818 66.355 27.547 65.9903C30.2032 63.3341 31.9324 59.7534 32.223 55.7742C32.2517 55.381 32.2714 54.9851 32.2714 54.5841C32.2714 54.2523 32.258 53.9242 32.2381 53.5971C32.2381 53.5961 32.2381 53.5971 32.2381 53.5961Z" fill="white"/>
</svg>
