<?xml version="1.0" standalone="no"?>
<!DOCTYPE svg PUBLIC "-//W3C//DTD SVG 1.1//EN" "http://www.w3.org/Graphics/SVG/1.1/DTD/svg11.dtd">
<!--Generator: Xara Designer (www.xara.com), SVG filter version: 6.3.0.23-->
<svg fill="none" fill-rule="evenodd" stroke="black" stroke-width="0.501" stroke-linejoin="bevel" stroke-miterlimit="10" font-family="Times New Roman" font-size="16" style="font-variant-ligatures:none" xmlns:xlink="http://www.w3.org/1999/xlink" xmlns="http://www.w3.org/2000/svg" version="1.1" overflow="visible" width="434.842pt" height="90.528pt" viewBox="72.75 -413.028 434.842 90.528">
 <defs>
	</defs>
 <g id="Layer 1" transform="scale(1 -1)">
  <path d="M 147.159,359.195 C 147.159,379.456 163.606,395.883 183.846,395.883 C 204.102,395.883 220.55,379.464 220.55,359.195 C 220.55,355.908 217.886,353.249 214.595,353.249 L 159.806,353.249 L 160.172,351.817 C 163.315,341.73 172.737,334.401 183.846,334.401 C 191.421,334.401 198.311,337.101 202.575,341.668 C 204.816,344.065 208.583,344.188 210.98,341.948 C 213.384,339.715 213.512,335.94 211.267,333.547 C 204.315,326.087 194.007,322.5 183.846,322.5 C 163.606,322.5 147.159,338.935 147.159,359.195 Z M 72.75,330.223 L 72.75,363.221 C 72.75,381.269 87.396,395.907 105.448,395.907 C 123.497,395.907 138.147,381.269 138.147,363.221 L 138.147,330.223 C 138.147,326.936 135.484,324.273 132.201,324.273 C 128.913,324.273 126.246,326.936 126.246,330.223 L 126.246,363.221 C 126.246,374.695 116.922,384.011 105.448,384.011 C 93.958,384.011 84.651,374.695 84.651,363.221 L 84.651,330.223 C 84.651,326.936 81.983,324.273 78.692,324.273 C 75.413,324.273 72.75,326.936 72.75,330.223 Z M 290.087,360.094 C 290.087,379.849 306.145,395.891 325.9,395.891 C 345.668,395.891 361.705,379.849 361.705,360.094 C 361.705,350.643 358.028,342.046 352.061,335.652 C 345.528,328.668 336.221,324.281 325.9,324.281 C 306.141,324.281 290.087,340.331 290.087,360.094 Z M 249.715,326.505 C 247.511,328.208 245.927,330.65 244.798,333.252 L 221.136,387.552 C 219.823,390.564 221.198,394.073 224.21,395.386 C 227.218,396.695 230.731,395.312 232.04,392.312 L 255.706,338.004 L 255.895,337.602 L 256.096,338.004 L 279.75,392.312 C 281.059,395.308 284.572,396.695 287.584,395.386 C 290.588,394.073 291.975,390.564 290.657,387.552 L 267.008,333.252 C 265.867,330.646 264.283,328.2 262.079,326.497 C 258.283,323.575 253.506,323.579 249.715,326.505 Z M 343.37,343.786 C 347.371,348.062 349.804,353.783 349.804,360.094 C 349.804,373.279 339.098,383.998 325.9,383.998 C 312.703,383.998 301.988,373.279 301.988,360.094 C 301.988,346.905 312.707,336.182 325.9,336.182 C 332.778,336.182 338.987,339.095 343.37,343.786 Z M 207.902,365.146 L 207.533,366.562 C 204.389,376.653 194.971,383.986 183.846,383.986 C 172.733,383.986 163.315,376.653 160.172,366.562 L 159.806,365.146 L 207.902,365.146 Z" stroke="none" fill="#333333" stroke-width="0.103" stroke-linejoin="miter" marker-start="none" marker-end="none"/>
  <path d="M 489.031,385.238 C 489.031,390.355 493.184,394.512 498.314,394.512 C 503.435,394.512 507.592,390.355 507.592,385.238 C 507.592,382.775 506.648,380.555 505.089,378.889 C 503.402,377.084 500.985,375.939 498.314,375.939 C 493.184,375.939 489.031,380.108 489.031,385.238 Z M 503.981,379.927 C 505.27,381.323 506.062,383.182 506.062,385.238 C 506.062,389.51 502.582,392.981 498.314,392.981 C 494.029,392.981 490.558,389.51 490.558,385.238 C 490.558,380.957 494.029,377.478 498.314,377.478 C 500.546,377.478 502.557,378.425 503.981,379.927 Z M 495.179,380.268 L 495.179,390.199 L 498.675,390.199 C 499.816,390.199 500.71,389.945 501.33,389.432 C 501.95,388.91 502.253,388.164 502.253,387.191 C 502.253,386.526 502.102,385.976 501.781,385.521 C 501.457,385.078 501.014,384.725 500.435,384.495 L 502.668,380.35 L 502.668,380.268 L 500.821,380.268 L 498.823,384.089 L 496.902,384.089 L 496.902,380.268 L 495.179,380.268 Z M 500.046,385.915 C 500.378,386.21 500.53,386.616 500.53,387.125 C 500.53,387.647 500.39,388.069 500.082,388.356 C 499.783,388.644 499.323,388.804 498.728,388.804 L 496.902,388.804 L 496.902,385.472 L 498.675,385.472 C 499.266,385.472 499.721,385.623 500.046,385.915 Z" stroke="none" fill="#333333" stroke-width="0.103" stroke-linejoin="miter" marker-start="none" marker-end="none"/>
  <path d="M 387.177,360.09 C 387.177,379.845 403.231,395.887 422.986,395.887 C 442.754,395.887 458.795,379.845 458.795,360.09 C 458.795,350.643 455.11,342.042 449.151,335.648 C 442.614,328.664 433.303,324.277 422.986,324.277 C 403.227,324.277 387.177,340.327 387.177,360.09 Z M 440.451,343.782 C 444.457,348.058 446.894,353.779 446.894,360.09 C 446.894,373.271 436.179,383.99 422.986,383.99 C 409.792,383.99 399.074,373.271 399.074,360.09 C 399.074,346.897 409.797,336.174 422.986,336.174 C 429.872,336.174 436.069,339.087 440.451,343.782 Z" stroke="none" fill="#333333" stroke-width="0.103" stroke-linejoin="miter" marker-start="none" marker-end="none"/>
  <path d="M 470.581,330.219 L 470.581,389.936 C 470.581,393.219 473.244,395.887 476.527,395.887 C 479.806,395.887 482.478,393.219 482.478,389.936 L 482.478,330.219 C 482.478,326.932 479.806,324.269 476.527,324.269 C 473.244,324.269 470.581,326.932 470.581,330.219 Z" stroke="none" fill="#333333" stroke-width="0.103" stroke-linejoin="miter" marker-start="none" marker-end="none"/>
  <path d="M 446.894,330.215 L 446.894,389.932 C 446.894,393.219 449.558,395.887 452.845,395.887 C 456.128,395.887 458.795,393.219 458.795,389.932 L 458.795,330.215 C 458.795,326.928 456.128,324.265 452.845,324.265 C 449.558,324.265 446.894,326.928 446.894,330.215 Z" stroke="none" fill="#333333" stroke-width="0.103" stroke-linejoin="miter" marker-start="none" marker-end="none"/>
  <path d="M 380.562,331.183 C 380.562,334.988 377.467,338.082 373.659,338.082 C 369.843,338.082 366.753,334.988 366.753,331.183 C 366.753,329.361 367.467,327.699 368.62,326.472 C 369.872,325.122 371.669,324.277 373.659,324.277 C 377.467,324.277 380.562,327.371 380.562,331.183 Z" stroke="none" fill="#333333" stroke-width="0.103" stroke-linejoin="miter" marker-start="none" marker-end="none"/>
  <path d="M 483.43,406.126 C 483.43,409.938 480.339,413.028 476.527,413.028 C 472.719,413.028 469.629,409.938 469.629,406.126 C 469.629,404.304 470.335,402.646 471.488,401.414 C 472.739,400.064 474.537,399.223 476.527,399.223 C 480.339,399.223 483.43,402.317 483.43,406.126 Z" stroke="none" fill="#333333" stroke-width="0.103" stroke-linejoin="miter" marker-start="none" marker-end="none"/>
 </g>
</svg>
